<svg width="20" height="20" viewBox="0 0 20 20" fill="none" xmlns="http://www.w3.org/2000/svg">
<g id="call">
<path id="primary" d="M10 5.8335C11.1051 5.8335 12.1649 6.27248 12.9463 7.05388C13.7277 7.83529 14.1667 8.89509 14.1667 10.0002" stroke="black" stroke-width="2" stroke-linecap="round" stroke-linejoin="round"/>
<path id="primary_2" d="M12.5 17.5001C11.2083 17.192 9.98304 16.6527 8.88335 15.9084L10.4 13.7334C10.6493 13.393 11.0185 13.1599 11.433 13.081C11.8475 13.0021 12.2764 13.0834 12.6334 13.3084C12.9084 13.4834 13.1917 13.6417 13.4667 13.8001C13.6737 13.9013 13.8575 14.0443 14.0064 14.2201C14.1553 14.3959 14.2662 14.6007 14.332 14.8216C14.3978 15.0424 14.417 15.2745 14.3886 15.5031C14.3601 15.7318 14.2846 15.9521 14.1667 16.1501L13.65 16.9417C13.5577 17.1577 13.3906 17.3331 13.1793 17.4357C12.968 17.5382 12.7268 17.5611 12.5 17.5001ZM3.05835 6.39172L3.89168 5.87505C4.08493 5.74964 4.30208 5.66565 4.52943 5.62839C4.75677 5.59113 4.98937 5.6014 5.21254 5.65857C5.43572 5.71573 5.64462 5.81854 5.82605 5.96051C6.00749 6.10247 6.15752 6.28051 6.26668 6.48339C6.42502 6.78339 6.58335 7.06672 6.75835 7.31672C6.98335 7.67364 7.06462 8.10261 6.98574 8.5171C6.90686 8.93158 6.67372 9.30072 6.33335 9.55005L4.11668 11.0917C3.36625 10.0014 2.8186 8.78473 2.50002 7.50005C2.44989 7.27922 2.4782 7.04783 2.58008 6.84559C2.68196 6.64335 2.85106 6.48288 3.05835 6.39172Z" fill="black" stroke="black" stroke-width="2" stroke-linecap="round" stroke-linejoin="round"/>
<path id="primary_3" d="M4.11664 11.0918C4.72901 12.0523 5.45048 12.9388 6.26664 13.7335C7.06132 14.5496 7.94777 15.2711 8.9083 15.8835" stroke="black" stroke-width="2" stroke-linecap="round" stroke-linejoin="round"/>
<path id="primary_4" d="M9.16669 2.55C9.4432 2.51649 9.72149 2.49979 10 2.5C11.9891 2.5 13.8968 3.29018 15.3033 4.6967C16.7098 6.10322 17.5 8.01088 17.5 10C17.5002 10.2785 17.4835 10.5568 17.45 10.8333" stroke="black" stroke-width="2" stroke-linecap="round" stroke-linejoin="round"/>
</g>
</svg>
